<svg width="100" height="100" viewBox="0 0 100 100" fill="none" xmlns="http://www.w3.org/2000/svg">
<rect width="100" height="100" rx="50" fill="black"/>
<path d="M90.1406 69C91.6802 71.6666 89.7558 74.9998 86.6768 75H13.9277C10.8488 74.9997 8.92432 71.6665 10.4639 69L15.083 61H85.5215L90.1406 69ZM82.6348 56H50.001V51H20.8564L26.0527 42H74.5518L82.6348 56ZM71.665 37H50.001V32H31.8262L37.0225 23H63.582L71.665 37ZM46.8379 6C48.3775 3.33336 52.227 3.33336 53.7666 6L60.6953 18H50.001V13H42.7959L46.8379 6Z" fill="white"/>
</svg>
